<mxfile host="Electron" modified="2023-05-10T05:55:58.899Z" agent="Mozilla/5.0 (Macintosh; Intel Mac OS X 10_15_7) AppleWebKit/537.36 (KHTML, like Gecko) draw.io/21.1.2 Chrome/106.0.5249.199 Electron/21.4.3 Safari/537.36" etag="1964ARwYhDpRug9_D3hv" version="21.1.2" type="device">
  <diagram name="페이지-1" id="6HMfdOg1glxMT6PPG5qd">
    <mxGraphModel dx="984" dy="649" grid="1" gridSize="10" guides="1" tooltips="1" connect="1" arrows="1" fold="1" page="1" pageScale="1" pageWidth="827" pageHeight="1169" math="0" shadow="0">
      <root>
        <object label="" 사용자="" id="0">
          <mxCell />
        </object>
        <mxCell id="1" parent="0" />
        <UserObject label="일반 회원" tooltip="" id="GlG0iQ4OJn0zayJ6-DKC-1">
          <mxCell style="shape=umlActor;verticalLabelPosition=bottom;verticalAlign=top;html=1;outlineConnect=0;fontFamily=Helvetica;direction=east;" parent="1" vertex="1">
            <mxGeometry x="80" y="230" width="30" height="60" as="geometry" />
          </mxCell>
        </UserObject>
        <mxCell id="GlG0iQ4OJn0zayJ6-DKC-5" value="지원 정보 조회&lt;br&gt;" style="ellipse;whiteSpace=wrap;html=1;" parent="1" vertex="1">
          <mxGeometry x="315" y="230" width="140" height="70" as="geometry" />
        </mxCell>
        <mxCell id="GlG0iQ4OJn0zayJ6-DKC-6" value="지원 취소&lt;br&gt;" style="ellipse;whiteSpace=wrap;html=1;" parent="1" vertex="1">
          <mxGeometry x="315" y="330" width="140" height="70" as="geometry" />
        </mxCell>
        <mxCell id="GlG0iQ4OJn0zayJ6-DKC-21" value="" style="endArrow=none;html=1;rounded=0;exitX=0;exitY=0.5;exitDx=0;exitDy=0;entryX=0.5;entryY=0.5;entryDx=0;entryDy=0;entryPerimeter=0;" parent="1" source="GlG0iQ4OJn0zayJ6-DKC-6" target="GlG0iQ4OJn0zayJ6-DKC-1" edge="1">
          <mxGeometry width="50" height="50" relative="1" as="geometry">
            <mxPoint x="310" y="410" as="sourcePoint" />
            <mxPoint x="440" y="480" as="targetPoint" />
            <Array as="points" />
          </mxGeometry>
        </mxCell>
        <mxCell id="GlG0iQ4OJn0zayJ6-DKC-22" value="" style="endArrow=none;html=1;rounded=0;entryX=0;entryY=0.5;entryDx=0;entryDy=0;exitX=0.5;exitY=0.5;exitDx=0;exitDy=0;exitPerimeter=0;" parent="1" source="GlG0iQ4OJn0zayJ6-DKC-1" target="GlG0iQ4OJn0zayJ6-DKC-5" edge="1">
          <mxGeometry width="50" height="50" relative="1" as="geometry">
            <mxPoint x="100" y="260" as="sourcePoint" />
            <mxPoint x="310" y="260" as="targetPoint" />
          </mxGeometry>
        </mxCell>
        <mxCell id="GlG0iQ4OJn0zayJ6-DKC-26" value="지원 정보 삭제&lt;br&gt;" style="ellipse;whiteSpace=wrap;html=1;" parent="1" vertex="1">
          <mxGeometry x="315" y="530" width="140" height="70" as="geometry" />
        </mxCell>
        <mxCell id="GlG0iQ4OJn0zayJ6-DKC-27" value="지원 정보 통계&lt;br&gt;" style="ellipse;whiteSpace=wrap;html=1;" parent="1" vertex="1">
          <mxGeometry x="315" y="650" width="140" height="70" as="geometry" />
        </mxCell>
        <mxCell id="GlG0iQ4OJn0zayJ6-DKC-28" value="" style="endArrow=none;html=1;rounded=0;exitX=0;exitY=0.5;exitDx=0;exitDy=0;entryX=0.5;entryY=0.5;entryDx=0;entryDy=0;entryPerimeter=0;" parent="1" source="GlG0iQ4OJn0zayJ6-DKC-26" target="GlG0iQ4OJn0zayJ6-DKC-1" edge="1">
          <mxGeometry width="50" height="50" relative="1" as="geometry">
            <mxPoint x="310" y="560" as="sourcePoint" />
            <mxPoint x="100" y="260" as="targetPoint" />
          </mxGeometry>
        </mxCell>
        <mxCell id="GlG0iQ4OJn0zayJ6-DKC-29" value="" style="endArrow=none;html=1;rounded=0;exitX=0.05;exitY=0.271;exitDx=0;exitDy=0;entryX=0.5;entryY=0.5;entryDx=0;entryDy=0;entryPerimeter=0;exitPerimeter=0;" parent="1" source="GlG0iQ4OJn0zayJ6-DKC-27" target="GlG0iQ4OJn0zayJ6-DKC-1" edge="1">
          <mxGeometry width="50" height="50" relative="1" as="geometry">
            <mxPoint x="310" y="680" as="sourcePoint" />
            <mxPoint x="100" y="260" as="targetPoint" />
          </mxGeometry>
        </mxCell>
        <mxCell id="rKpkUliW4TN8j6Uz1K4N-6" value="" style="swimlane;startSize=0;" parent="1" vertex="1">
          <mxGeometry x="160" y="180" width="510" height="580" as="geometry" />
        </mxCell>
        <mxCell id="rKpkUliW4TN8j6Uz1K4N-9" value="&lt;b&gt;지원 정보 관리 system&lt;/b&gt;" style="text;html=1;align=center;verticalAlign=middle;resizable=0;points=[];autosize=1;strokeColor=none;fillColor=none;" parent="rKpkUliW4TN8j6Uz1K4N-6" vertex="1">
          <mxGeometry x="184" y="10" width="140" height="30" as="geometry" />
        </mxCell>
        <mxCell id="rKpkUliW4TN8j6Uz1K4N-11" value="회사 회원&lt;br&gt;" style="shape=umlActor;verticalLabelPosition=bottom;verticalAlign=top;html=1;outlineConnect=0;" parent="1" vertex="1">
          <mxGeometry x="80" y="640" width="30" height="60" as="geometry" />
        </mxCell>
        <mxCell id="rKpkUliW4TN8j6Uz1K4N-12" value="" style="endArrow=none;html=1;rounded=0;entryX=0;entryY=0.5;entryDx=0;entryDy=0;" parent="1" target="GlG0iQ4OJn0zayJ6-DKC-27" edge="1">
          <mxGeometry width="50" height="50" relative="1" as="geometry">
            <mxPoint x="100" y="670" as="sourcePoint" />
            <mxPoint x="150" y="620" as="targetPoint" />
          </mxGeometry>
        </mxCell>
      </root>
    </mxGraphModel>
  </diagram>
</mxfile>
